<svg width="199" height="220" viewBox="0 0 199 220" fill="none" xmlns="http://www.w3.org/2000/svg">
<path d="M165.313 214.603L35.9952 216.584C20.5571 202.608 7.60534 172.803 12.0254 153.944C17.068 132.432 24.3046 113.917 31.9195 102.687C35.2525 97.7794 38.6556 94.2476 41.9546 92.4567C57.8751 83.828 138.817 82.3466 155.482 92.4567C157.684 93.8004 159.92 95.9346 162.164 98.7257C170.438 109.077 178.605 128.521 184.442 149.999C190.388 171.873 181.234 200.223 165.313 214.603Z" fill="#41313E"/>
<g style="mix-blend-mode:soft-light" opacity="0.5">
<path d="M162.167 98.7257C135.646 100.826 117.326 118.856 101.83 120.391C88.9558 123.716 49.4238 91.0432 31.9219 102.687C35.2549 97.7794 38.658 94.2476 41.957 92.4567C57.8775 83.828 138.819 82.3466 155.484 92.4567C157.676 93.8004 159.922 95.9346 162.167 98.7257Z" fill="black"/>
</g>
<path d="M152.665 76.8285C152.137 94.138 130.932 105.095 116.833 113.656C100.418 123.62 100.182 122.111 73.5813 104.671C61.17 96.5298 46.4306 88.9731 43.7882 77.8587C38.0149 53.7812 70.1322 3.86523 99.6851 3.86523C129.238 3.86523 153.646 46.1067 152.665 76.8285Z" fill="black"/>
<path d="M135.462 63.1506C135.235 66.0573 134.766 68.9401 134.06 71.7694C130.701 84.7465 122.4 94.8427 113.568 100.225C108.888 103.124 104.057 104.667 99.6791 104.667C99.1867 104.667 98.6962 104.629 98.2058 104.591C87.2998 103.501 70.6547 90.8158 65.4459 71.8492C64.639 69.0102 64.1212 66.0972 63.9005 63.1546C63.718 60.8507 63.6672 58.5384 63.7484 56.2288C64.5791 32.289 79.5988 15.5386 99.6791 15.5386C119.719 15.5386 134.777 32.2511 135.608 56.1529C135.69 58.4864 135.641 60.8225 135.462 63.1506Z" fill="#F7A58E"/>
<path d="M67.2629 71.468C66.6965 71.7212 66.082 71.8499 65.4613 71.8453C62.7448 71.8833 59.8382 69.775 58.4049 66.387C56.6293 62.2463 57.7243 57.844 60.8571 56.4884C61.7791 56.118 62.7899 56.0264 63.7638 56.2249C66.1039 56.6761 68.4821 58.6326 69.7272 61.5695C71.4908 65.7101 70.3958 70.1144 67.2629 71.468Z" fill="#F7A58E"/>
<path d="M140.367 66.3868C139.045 69.4733 136.517 71.4678 134.063 71.7773C133.196 71.9232 132.306 71.8186 131.497 71.4758C129.799 70.7611 128.694 69.0681 128.364 67.0356C128.025 65.4165 128.214 63.5338 129.006 61.6891C129.006 61.6531 129.044 61.6152 129.044 61.5773C130.402 58.4149 133.048 56.3445 135.61 56.1568C136.406 56.0809 137.209 56.1973 137.95 56.4963C141.045 57.8439 142.14 62.2461 140.367 66.3868Z" fill="#F7A58E"/>
<path d="M140.372 66.3872C139.051 69.4737 136.522 71.4682 134.068 71.7777C130.709 84.7548 122.407 94.851 113.575 100.233C119.689 94.0604 129.091 75.6269 127.144 72.3427C125.196 69.0585 112.931 76.2478 108.855 72.1231C102.405 65.5946 101.757 65.8122 95.3047 71.8535C87.8759 78.8113 79.9527 69.9309 72.8602 71.2027C65.7678 72.4745 83.4699 101.635 98.2133 104.6C87.3074 103.51 70.6622 90.8241 65.4535 71.8575C62.737 71.8955 59.8304 69.7872 58.3971 66.3992C56.6214 62.2585 57.7164 57.8562 60.8493 56.5006C61.7713 56.1302 62.7821 56.0386 63.756 56.2371C64.5867 32.2973 79.6064 15.5469 99.6867 15.5469C119.727 15.5469 134.785 32.2594 135.615 56.1612C136.411 56.0853 137.214 56.2017 137.956 56.5006C141.05 57.8443 142.145 62.2465 140.372 66.3872Z" fill="#310F06"/>
<path d="M136.245 55.668V58.1836C136.193 60.9547 134.811 63.3325 132.461 65.295C127.955 69.0684 119.908 71.4102 110.858 72.3406C107.334 72.117 104.468 62.2124 101.549 62.2124C98.6304 62.2124 97.8017 71.6338 91.604 72.3406C80.9824 71.2725 71.3116 68.3955 66.4591 63.8316C64.3012 61.7992 63.0921 59.4393 63.1421 56.7521V53.3581C63.3683 45.1625 136.521 47.4186 136.245 55.668Z" fill="black"/>
<path d="M96.5 75.3594C96.5 75.3594 96.8323 80.0431 101.831 80.0431C106.829 80.0431 107.16 75.539 107.16 75.539C107.16 75.539 105.384 78.6615 101.651 78.6615C97.9173 78.6615 96.5 75.3594 96.5 75.3594Z" fill="#F7CEC3"/>
<path d="M132.471 65.2949C127.965 69.0682 119.917 71.4101 110.867 72.3404C107.344 72.1168 104.477 62.2123 101.559 62.2123C98.64 62.2123 97.8113 71.6337 91.6137 72.3404C80.992 71.2723 71.3212 68.3954 66.4688 63.8315C72.3061 58.8203 84.5492 55.3923 98.7101 55.3923C114.226 55.3923 127.466 59.5091 132.471 65.2949Z" fill="white"/>
<path d="M156.4 63.4523C151.754 34.4734 130.27 0.73291 101.83 0.73291C78.6091 0.73291 50.9199 34.1619 43.3029 60.0662C42.25 63.6319 41.5773 67.0419 41.3531 70.2103C41.1269 73.3448 41.3351 76.2217 42.0258 78.7712C45.1866 90.3089 70.0192 107.321 86.252 115.938C89.1707 117.489 97.2621 120.346 101.035 120.434C103.676 121.588 110.844 117.952 113.247 116.66C130.014 107.654 156.868 91.5327 157.335 76.5651V76.2557C157.424 71.9682 157.111 67.6817 156.4 63.4523ZM101.536 116.776C95.5945 106.908 58.2245 85.7389 60.2443 77.6971C65.373 57.2692 82.2124 47.7739 101.194 48.7762C122.613 49.9082 139.2 62.8493 140.477 73.6663C139.943 83.2933 107.978 105.839 101.536 116.776Z" fill="#41313E"/>
<g style="mix-blend-mode:soft-light">
<path d="M88.4558 116.802C71.7485 109.226 44.2795 89.7899 41.1186 78.2503C40.428 75.7008 40.2218 72.8239 40.446 69.6914C41.9714 77.5436 48.5895 86.0266 56.6368 93.711C66.2495 102.891 86.0316 108.397 88.4558 116.802Z" fill="white"/>
</g>
<g style="mix-blend-mode:soft-light">
<path d="M156.426 75.7361V76.0455C155.96 91.0191 127.104 108.804 109.516 117.572C114.594 104.841 151.794 95.9045 156.426 75.7361Z" fill="white"/>
</g>
<path d="M91.7504 160.03C91.7031 160.029 91.656 160.022 91.6103 160.01C91.4829 159.973 91.3755 159.887 91.3116 159.771C91.2478 159.655 91.2329 159.518 91.27 159.391C96.9652 139.712 95.3357 121.831 92.9015 118.16C92.8282 118.049 92.8019 117.914 92.8284 117.785C92.8549 117.655 92.9319 117.541 93.0426 117.468C93.1533 117.395 93.2886 117.369 93.4187 117.395C93.5488 117.421 93.663 117.498 93.7363 117.609C96.3386 121.518 98.0942 139.408 92.2309 159.669C92.2004 159.772 92.1371 159.863 92.0506 159.928C91.9641 159.994 91.8588 160.029 91.7504 160.03Z" fill="#F0F0F0"/>
<path d="M91.4545 119.763C91.4086 119.763 91.3628 119.757 91.3184 119.745C91.2551 119.727 91.1958 119.698 91.1441 119.657C91.0924 119.617 91.0492 119.566 91.017 119.509C90.9848 119.452 90.9643 119.389 90.9566 119.324C90.9489 119.259 90.9541 119.193 90.9721 119.13C90.9901 119.066 91.4265 117.553 92.6696 117.068C93.4063 116.78 94.2331 116.912 95.1279 117.467C95.1867 117.5 95.2383 117.544 95.2796 117.597C95.3208 117.65 95.3509 117.711 95.368 117.776C95.385 117.841 95.3887 117.909 95.3789 117.976C95.369 118.042 95.3457 118.106 95.3105 118.163C95.2753 118.221 95.2288 118.27 95.1739 118.309C95.119 118.348 95.0567 118.376 94.9909 118.39C94.925 118.405 94.8569 118.406 94.7907 118.393C94.7245 118.381 94.6614 118.355 94.6054 118.317C93.9909 117.942 93.4624 117.836 93.034 118.006C92.2633 118.307 91.939 119.404 91.935 119.404C91.9046 119.507 91.8414 119.598 91.7548 119.663C91.6682 119.728 91.5628 119.763 91.4545 119.763Z" fill="#F0F0F0"/>
<path d="M106.796 160.03C106.687 160.03 106.582 159.994 106.495 159.929C106.408 159.864 106.345 159.773 106.315 159.669C100.452 139.408 102.217 121.518 104.808 117.609C104.881 117.498 104.995 117.421 105.125 117.395C105.255 117.369 105.391 117.395 105.501 117.468C105.612 117.541 105.689 117.655 105.716 117.785C105.742 117.914 105.716 118.049 105.643 118.16C103.21 121.831 101.581 139.712 107.276 159.391C107.294 159.454 107.3 159.52 107.293 159.585C107.286 159.651 107.265 159.714 107.234 159.771C107.202 159.829 107.159 159.879 107.108 159.92C107.056 159.961 106.997 159.992 106.934 160.01C106.889 160.022 106.842 160.029 106.796 160.03Z" fill="#F0F0F0"/>
<path d="M107.101 119.763C106.992 119.763 106.887 119.727 106.8 119.661C106.713 119.596 106.65 119.504 106.621 119.4C106.621 119.39 106.294 118.297 105.518 118.002C105.089 117.836 104.561 117.942 103.95 118.315C103.894 118.35 103.832 118.373 103.767 118.383C103.702 118.394 103.636 118.391 103.572 118.376C103.508 118.361 103.448 118.333 103.394 118.295C103.341 118.256 103.296 118.208 103.262 118.152C103.227 118.096 103.204 118.034 103.194 117.969C103.183 117.904 103.186 117.838 103.201 117.774C103.216 117.711 103.244 117.651 103.283 117.597C103.321 117.544 103.37 117.499 103.426 117.465C104.323 116.918 105.149 116.786 105.886 117.066C107.129 117.551 107.566 119.062 107.584 119.128C107.619 119.255 107.603 119.392 107.538 119.507C107.473 119.622 107.365 119.707 107.237 119.743C107.193 119.755 107.147 119.762 107.101 119.763Z" fill="#F0F0F0"/>
<g style="mix-blend-mode:soft-light" opacity="0.5">
<path d="M156.73 63.8873C149.882 42.4492 135.911 18.767 104.793 16.3173C71.3761 13.7099 49.332 41.4848 43.6328 60.4933C50.1908 34.609 76.9992 0.0499496 101.836 3.76927e-05C130.272 -0.0418883 152.092 34.9005 156.73 63.8873Z" fill="black"/>
</g>
<path d="M177.416 220H21.5837L0.220244 145.911C-0.0219578 145.07 -0.0650836 144.185 0.0942622 143.325C0.253608 142.466 0.611065 141.655 1.13845 140.956C1.66584 140.258 2.34872 139.691 3.13325 139.301C3.91778 138.91 4.78249 138.707 5.65919 138.707H193.34C194.217 138.707 195.082 138.91 195.867 139.3C196.651 139.69 197.334 140.257 197.862 140.955C198.389 141.654 198.747 142.465 198.906 143.325C199.065 144.185 199.022 145.07 198.779 145.911L177.416 220Z" fill="black"/>
<path d="M106.953 194.016C109.932 192.147 112.158 189.204 112.7 185.664C113.807 178.467 107.632 171.737 98.7356 171.737C89.8395 171.737 83.6619 178.467 84.7689 185.664C85.3234 189.27 87.6174 192.253 90.6802 194.116L90.8584 195.946H90.8724L91.0446 197.713C91.0966 198.24 91.6451 198.696 92.3538 198.747C93.1545 198.805 93.8051 198.334 93.7671 197.749L93.667 196.138C93.667 196.034 93.7651 195.95 93.9012 195.95C93.9598 195.945 94.0185 195.961 94.0661 195.995C94.1137 196.03 94.1469 196.081 94.1594 196.138L94.2495 197.717C94.2775 198.244 94.82 198.7 95.5167 198.751C96.3174 198.809 96.984 198.338 96.97 197.753L96.934 196.142C96.934 196.038 97.04 195.954 97.1762 195.954C97.234 195.948 97.2921 195.964 97.3386 195.999C97.3852 196.033 97.4165 196.085 97.4264 196.142L97.4524 197.721C97.4524 198.248 97.9829 198.704 98.6775 198.755C99.4783 198.813 100.161 198.342 100.173 197.757L100.201 196.146C100.211 196.089 100.242 196.037 100.289 196.003C100.335 195.968 100.393 195.952 100.451 195.958C100.589 195.958 100.697 196.042 100.693 196.146L100.655 197.757C100.641 198.314 101.234 198.755 101.973 198.755C102.711 198.755 103.342 198.306 103.374 197.757L103.47 196.146C103.482 196.089 103.516 196.038 103.563 196.003C103.611 195.969 103.67 195.953 103.728 195.958C103.864 195.958 103.968 196.042 103.962 196.146L103.856 197.757C103.82 198.314 104.395 198.755 105.133 198.755C105.872 198.755 106.521 198.306 106.577 197.757L106.901 194.505C106.901 194.475 106.901 194.447 106.901 194.417L106.941 194.018L106.953 194.016ZM104.339 183.345C107.047 183.345 109.027 185.251 108.775 187.499C108.533 189.637 106.337 191.293 103.86 191.293C101.384 191.293 99.3882 189.631 99.4042 187.499C99.4202 185.251 101.63 183.345 104.339 183.345ZM98.5654 190.57C99.19 190.57 100.023 192.367 99.6904 192.634C99.3581 192.902 97.5605 192.882 97.2422 192.634C96.9239 192.387 97.9449 190.57 98.5654 190.57ZM88.1379 187.499C87.8697 185.251 89.8375 183.345 92.5419 183.345C95.2464 183.345 97.4724 185.251 97.5045 187.499C97.5325 189.637 95.5487 191.293 93.0704 191.293C90.5922 191.293 88.3922 189.637 88.1379 187.499Z" fill="white"/>
<path d="M67 76.1C67 73.9461 66.7333 73.5 65.2667 67C63.4 73.24 63.1333 73.76 63 76.1C63 78.2539 63.8954 80 65 80C66.1046 80 67 78.2539 67 76.1Z" fill="white"/>
<path d="M69 70.9C69 69.7402 68.8667 69.5 68.1333 66C67.2 69.36 67.0667 69.64 67 70.9C67 72.0598 67.4477 73 68 73C68.5523 73 69 72.0598 69 70.9Z" fill="white"/>
<path d="M94.5 93.808C94.5 92.8507 95.3432 92.1124 96.2922 92.239L101.216 92.8955C101.736 92.9648 102.264 92.9648 102.784 92.8955L107.708 92.239C108.657 92.1124 109.5 92.8507 109.5 93.808C109.5 94.7237 108.725 95.4484 107.812 95.3875L102 95L96.1882 95.3875C95.2746 95.4484 94.5 94.7237 94.5 93.808Z" fill="white"/>
</svg>
